/* XPM */
static char *exit[] = {
/* columns rows colors chars-per-pixel */
"40 40 183 2 ",
"   c #313132",
".  c #323132",
"X  c #323232",
"o  c #323233",
"O  c #333333",
"+  c #333433",
"@  c #343533",
"#  c #353533",
"$  c #363633",
"%  c #353534",
"&  c #353535",
"*  c #373737",
"=  c #373A33",
"-  c #373738",
";  c #3C4233",
":  c #404736",
">  c #54663B",
",  c #55663B",
"<  c #4B4B4B",
"1  c #4C4C4C",
"2  c #4E4E4E",
"3  c #4F4F50",
"4  c #515152",
"5  c #5E5E5D",
"6  c #5F5F5F",
"7  c #626261",
"8  c #636462",
"9  c #656665",
"0  c #696969",
"q  c #6D6D6D",
"w  c #6E6D6E",
"e  c #6F6E6F",
"r  c #706F70",
"t  c #707070",
"y  c #707071",
"u  c #6D8C41",
"i  c #6E8D42",
"p  c #709042",
"a  c #709043",
"s  c #719043",
"d  c #719143",
"f  c #769943",
"g  c #7BA145",
"h  c #DBA138",
"j  c #DDA438",
"k  c #DDA538",
"l  c #9AD14A",
"z  c #9AD04B",
"x  c #9AD14B",
"c  c #9AD14C",
"v  c #9BD14D",
"b  c #9BD24C",
"n  c #9BD14E",
"m  c #9CD24E",
"M  c #9CD24F",
"N  c #9DD250",
"B  c #9DD251",
"V  c #9ED252",
"C  c #9ED352",
"Z  c #9FD354",
"A  c #A0D356",
"S  c #A0D357",
"D  c #A2D45A",
"F  c #A3D45C",
"G  c #A3D55C",
"H  c #A4D55E",
"J  c #A5D55F",
"K  c #A5D560",
"L  c #A6D662",
"P  c #A7D664",
"I  c #A8D665",
"U  c #A9D768",
"Y  c #AAD768",
"T  c #AAD76A",
"R  c #ACD76E",
"E  c #ACD76F",
"W  c #ABD86B",
"Q  c #ACD86B",
"!  c #ACD86D",
"~  c #ADD86F",
"^  c #ADD870",
"/  c #AED870",
"(  c #B0DB72",
")  c #B2DB77",
"_  c #B2DA79",
"`  c #B5DB7D",
"'  c #959595",
"]  c #979797",
"[  c #999999",
"{  c #9A999A",
"}  c #9B9A9B",
"|  c #9F9F9E",
" . c #9F9F9F",
".. c #A1A1A1",
"X. c #A2A2A2",
"o. c #ABABAA",
"O. c #ABABAB",
"+. c #ADADAD",
"@. c #AFAFAF",
"#. c #B3B4B3",
"$. c #B7B6B7",
"%. c #B8B8B7",
"&. c #B8B7B8",
"*. c #BABABA",
"=. c #BBBABB",
"-. c #BBBBBC",
";. c #BEBEBF",
":. c #BCDD8B",
">. c #BDDE8D",
",. c #BFDF90",
"<. c #BFE08F",
"1. c #C0E093",
"2. c #C4E199",
"3. c #C6E39C",
"4. c #C8E2A3",
"5. c #C9E4A2",
"6. c #C9E3A4",
"7. c #CAE4A5",
"8. c #CCE4AA",
"9. c #CEE6AB",
"0. c #CEE7AB",
"q. c #CDE5AC",
"w. c #CEE5AD",
"e. c #D1E6B2",
"r. c #D1E6B3",
"t. c #D4E8B7",
"y. c #D6E9BA",
"u. c #D8E9BF",
"i. c #BFBFC0",
"p. c #D4D4D4",
"a. c #D7D7D6",
"s. c #DADBDA",
"d. c #DCDDDA",
"f. c #D9EAC0",
"g. c #DBEAC5",
"h. c #DBE9C6",
"j. c #DBEAC6",
"k. c #DDEBC8",
"l. c #DDEBCA",
"z. c #DEEACC",
"x. c #DFE0DD",
"c. c #E0ECCF",
"v. c #E1ECD0",
"b. c #E1EDD0",
"n. c #E1ECD1",
"m. c #E3EDD4",
"M. c #E4EDD6",
"N. c #E5EED8",
"B. c #E3E5E1",
"V. c #E4E4E2",
"C. c #E4E4E4",
"Z. c #E7E8E7",
"A. c #E9EFE1",
"S. c #EAEFE2",
"D. c #E8E9E6",
"F. c #E9E9E9",
"G. c #ECEDEA",
"H. c #EDEDEC",
"J. c #EDEDED",
"K. c #EDEEED",
"L. c #EEEEEE",
"P. c #EFEFEF",
"I. c #ECF1E5",
"U. c #EEF1E9",
"Y. c #EFF2EC",
"T. c #F0F2ED",
"R. c #F0F2EE",
"E. c #F1F2EF",
"W. c #F1F1F1",
"Q. c #F1F2F0",
"!. c #F2F2F1",
"~. c #F2F3F1",
"^. c #F2F2F2",
"/. c #F2F3F2",
"(. c #F3F3F3",
"). c #F4F4F4",
"_. c #F5F5F5",
"`. c #F6F6F6",
"'. c #F7F7F7",
"]. c #F8F8F8",
"[. c #F9F9F9",
"{. c #FAFAFA",
"}. c white",
/* pixels */
"}.}.L.}.}.L.'.}.'.L.}.}.L.}.}.L.'.}.'.L.}.}.L.}.}.L.'.}.'.L.}.}.L.}.}.L.'.}.'.L.",
"}.'.'.'.}.'.'.}.'.'.}.'.'.'.}.'.'.}.'.'.}.'.'.'.}.'.'.}.'.'.}.'.'.'.}.'.'.}.'.'.",
"L.'.}.'.L.}.}.L.}.}.L.'.}.'.L.}.}.L.}.}.L.'.}.'.L.}.}.L.}.}.L.'.}.'.L.}.}.L.}.}.",
"}.'.'.'.}.'.'.}.'.'.}.'.'.'.}.'.'.}.'.'.}.'.'.'.}.'.'.}.'.'.}.'.'.'.}.'.'.}.'.'.",
"}.}.L.}.}.L.'.}.'.L.}.}.L.}.}.L.'.}.'.L.}.}.L.}.}.L.'.}.'.L.}.}.L.}.}.L.'.}.'.L.",
"L.'.}.'.L.}.}.L.}.}.L.'.}.'.L.}.}.L.}.}.L.'.}.'.L.}.}.L.}.}.L.'.}.'.L.}.}.L.}.}.",
"'.'.}.'.'.}.'.'.'.}.'.'.}.'.'.}.'.'.L.o...L.}.'.'.}.'.'.'.}.'.'.}.'.'.}.'.'.'.}.",
"}.}.L.}.}.L.'.}.'.L.}.}.L.}.}.L.'.'.1     1 B.}.}.L.'.}.'.L.}.}.L.}.}.L.'.}.'.L.",
"'.'.}.'.'.}.'.'.'.}.'.'.}.'.'.}.}.|   k k   | '.'.}.'.'.'.}.'.'.}.'.'.}.'.'.'.}.",
"L.'.}.'.L.}.}.L.}.}.L.'.}.'.L.}.*.    k h     $.L.}.}.L.}.}.L.'.}.'.L.}.}.L.}.}.",
"}.}.L.}.}.L.'.}.'.L.}.}.L.}.}.&.  t 4     1 w   *.L.'.}.'.L.}.}.L.}.}.L.'.}.'.L.",
"}.'.'.'.}.'.'.}.'.'.}.'.'.}.*.- r '.L.o.o.L.'.r   $.'.}.'.'.}.'.'.'.}.'.'.}.'.'.",
"L.'.}.'.L.}.}.L.}.}.L.'.}.*.  t '.L.}.}.L.'.}.'.w   *.L.}.}.L.'.}.'.L.}.}.L.}.}.",
"}.'.'.'.}.'.'.}.'.'.}.'.*.  t L.'.}.'.'.}.}.'.'.'.w   *.'.'.}.'.'.'.}.'.'.}.'.'.",
"}.}.B.Z.L.s.B.L.B.s.L.*.  8 Z.x.B.L.B.x.L.D.x.D.L.s.8   $.s.L.B.s.Z.L.x.B.'.'.L.",
"s.5                                                                         5 Z.",
"8 : f g g g g g g g g g g g g g g g g g g g g g g g g g g g g g g g g g g f : w ",
"- i l l l l l l l l l l l l l l l l l l l l l l l l l l l l l l l l l l l l i   ",
"  d l l l l l l l l l l l l l l l l l l l l l l l l l l l l l l l l l l l l d   ",
"  d l l l l l l l l l l l l l l l l l l l l l l l l l l l l l l l l l l l l d   ",
"  d l l l l l S l.M.M.M.j.B ( y.l l B u.W l B j.G l j.M.M.M.M.l.S l l l l l d   ",
"  d l l l l l U '.y.q.q.7.l W '.2.l q.Y.K l U '.( l 2.q.N.D.q.7.B l l l l l d   ",
"  d l l l l l I './ l l l l l 7.R.,.'.1.l l U '.( l l l e.l.l l l l l l l l d   ",
"  d l l l l l I '.q.:.l l l l l M.'.l.l l l U '.( l l l e.l.l l l l l l l l d   ",
"  d l l l l l U '.R.I.G l l l l e.'.7.l l l U '.( l l l e.l.l l l l l l l l d   ",
"  d l l l l l U './ l l l l l ` '.c.'.U l l U '.( l l l e.l.l l l l l l l l d   ",
"  d l l l l l U '.:.U U K l B D.j.l M.M.l l U '.( l l l e.l.l l l l l l l l d   ",
"  d l l l l l K '.'.'.'.'.B :.Y.G l U R.` l K '.W l l l q.j.l l l l l l l l d   ",
"  d l l l l l l I W W W I l l G l l l G l l l G l l l l B S l l l l l l l l p   ",
"  d l l l l l l l l l l l l l l l l l l l l l l l l l l l l l l l l l l l l d   ",
"  d l l l l l l l l l l l l l l l l l l l l l l l l l l l l l l l l l l l l i   ",
"1 , l l l l l l l l l l l l l l l l l l l l l l l l l l l l l l l l l l l l , 1 ",
"o.  - ; ; ; ; ; ; ; ; ; ; ; ; ; ; ; ; ; ; ; ; ; ; ; ; ; ; ; ; ; ; ; ; ; ; -   $.",
"}.a.| | | ' ' | ' ' | | ' | | ' ' | ' ' | ] ' | | ' ' | ' ' | ] ' | | ' '  .a.'.",
"}.}.L.}.}.L.'.}.'.L.}.}.L.}.}.L.'.}.'.L.}.}.L.}.}.L.'.}.'.L.}.}.L.}.}.L.'.}.'.L.",
"L.'.}.'.L.}.}.L.}.}.L.'.}.'.L.}.}.L.}.}.L.'.}.'.L.}.}.L.}.}.L.'.}.'.L.}.}.L.}.}.",
"'.'.}.'.'.}.'.'.'.}.'.'.}.'.'.}.'.'.'.}.'.'.}.'.'.}.'.'.'.}.'.'.}.'.'.}.'.'.'.}.",
"}.}.L.}.}.L.'.}.'.L.}.}.L.}.}.L.'.}.'.L.}.}.L.}.}.L.'.}.'.L.}.}.L.}.}.L.'.}.'.L.",
"'.'.}.'.'.}.'.'.'.}.'.'.}.'.'.}.'.'.'.}.'.'.}.'.'.}.'.'.'.}.'.'.}.'.'.}.'.'.'.}.",
"L.'.}.'.L.}.}.L.}.}.L.'.}.'.L.}.}.L.}.}.L.'.}.'.L.}.}.L.}.}.L.'.}.'.L.}.}.L.}.}."
};
