/* XPM */
static char *player[] = {
/* columns rows colors chars-per-pixel */
"40 40 129 2 ",
"   c #211F2F",
".  c #24232C",
"X  c #282728",
"o  c black",
"O  c #34292F",
"+  c #212030",
"@  c #2A2430",
"#  c #262932",
"$  c #2D2C31",
"%  c #272D39",
"&  c #312C33",
"*  c #392E33",
"=  c #2A353A",
"-  c #452F32",
";  c #4C3A31",
":  c #573733",
">  c #5B3934",
",  c #633D34",
"<  c #693F35",
"1  c #4B4537",
"2  c #574431",
"3  c #6C4336",
"4  c #694E32",
"5  c #61473A",
"6  c #6D4E3C",
"7  c #744435",
"8  c #794736",
"9  c #7C4937",
"0  c #724F3C",
"q  c #6E5735",
"w  c #645D3C",
"e  c #7C5D33",
"r  c #72513D",
"t  c #7E583F",
"y  c #6F663E",
"u  c #756B3F",
"i  c #344E47",
"p  c #3A5C4E",
"a  c #315054",
"s  c #345A5D",
"d  c #504D46",
"f  c #416F58",
"g  c #50765E",
"h  c #676351",
"j  c #696552",
"k  c #7D795D",
"l  c #874D37",
"z  c #8B4F37",
"x  c #874E38",
"c  c #875138",
"v  c #8E5038",
"b  c #945338",
"n  c #9D5639",
"m  c #A1593A",
"M  c #AD5E3A",
"N  c #876735",
"B  c #B5613B",
"V  c #BD653B",
"C  c #A07534",
"Z  c #AD7E35",
"A  c #C2673C",
"S  c #C4693C",
"D  c #825B40",
"F  c #885F41",
"G  c #936543",
"H  c #9B6A45",
"J  c #857B46",
"K  c #A36F46",
"L  c #A97347",
"P  c #BF7142",
"I  c #B17849",
"U  c #C27343",
"Y  c #CA7341",
"T  c #CD7B45",
"R  c #CC7F48",
"E  c #D07F47",
"W  c #5F926E",
"Q  c #41837C",
"!  c #4E9774",
"~  c #4F9D7D",
"^  c #519E79",
"/  c #57A674",
"(  c #58A976",
")  c #5AAE78",
"_  c #5DB17A",
"`  c #66AE7B",
"'  c #67B67F",
"]  c #68B77F",
"[  c #BC963E",
"{  c #8C8144",
"}  c #978B46",
"|  c #A1954D",
" . c #8A8461",
".. c #969068",
"X. c #989269",
"o. c black",
"O. c #B3AC73",
"+. c #D3844A",
"@. c #D58B4E",
"#. c #D98F4F",
"$. c #D9904F",
"%. c #D78F50",
"&. c #DA9150",
"*. c #C4A444",
"=. c #C6B64F",
"-. c #CEBC4F",
";. c #D3B549",
":. c #D1BE4F",
">. c #C4BD7F",
",. c #DDCA53",
"<. c #D0C25D",
"1. c #DFCD58",
"2. c #E1D05E",
"3. c #DACD6C",
"4. c #E5D66A",
"5. c #E7D970",
"6. c #E8DA73",
"7. c #EBDE7B",
"8. c #458D81",
"9. c #C6BE80",
"0. c #DED68C",
"q. c #F5EC97",
"w. c #F6ED9D",
"e. c #F6EEA1",
"r. c #F8F2B7",
"t. c #F9F4C4",
"y. c #FAF6CE",
"u. c #FBF7D1",
"i. c #FFFFFD",
/* pixels */
"o o o o o o o o o o o o o o o o o o o o X X X o o o o o o o o o o o o o o o o o ",
"o o o o o o o o o o o o o o o o o o o o X X o o o o o o o o o o o o o o o o o o ",
"o o o o o o o o o o o o o o o o o o o o o o o X o o o o o o o o o o o o o o o o ",
"o o o o o o o o o o o o o o o o o o o o o o o X o o o o o o o o o o o o o o o o ",
"o o o o o o o o o o o o o o X X o X X X X X X X o o o o o o o o o o o o o o o o ",
"o o o o o o o o o o o o o o o X X W ] / / / p X o o o o o o o o o o o o o o o o ",
"o o o o o o o o o o o o X X o X g ' _ p = = # X o o o o o o o o o o o o o o o o ",
"o o o o o o o o o o o X X X X X f ) ) i s ^ ( i   X o o o o o o o o o o o o o o ",
"o o o o X X X o o o o o o o o X f ) ~ Q Q 8.8.! ` g X o o o o o o o o o o o o o ",
"o o o o X o o o o o o o o o o o X + + + + + s 8.a + X o o o X X o o o o o o o o ",
"o o o o o o o o o X X X X X o X  .0.0.0.0.0.k % # X X X X X X X o o o o o o o o ",
"o o o o o o o o X v S S S :   o.u.i.t.q.q.q.q.4.u   9 S S S < X o o o o o o o o ",
"o o o o o o o X b V V V V B , o.y.i.t.q.q.q.q.4.u , V V V V B 7 X o o o o o o o ",
"o o o o o o o X               o.q.q.q.q.q.q.q.4.u               X o o o o o o o ",
"o o o o o o o X b V V V V V , o.y.r.q.q.q.q.6.,.u , V V V V V 7 X o o o o o o o ",
"o o o o o o o X * b A A A < @ o.e.w.q.5.2.2.1.,.u @ l S S A 9 O X o o o o o o o ",
"o o o o o o X X n > @ @ @ z , o.q.q.6.w @ @ { w 9 V 3 @ @ @ 9 9 X X o o o o o o ",
"o o o X X X X X m B M M M T 0 | 7.5.J N Z Z q c U @.U M M M V 9 X X o o o o o o ",
"o o X X X o o X X v +.&.&.&.&.5 { w e ;.,.,.u v E &.&.&.$.T 3 X o o o o o o o o ",
"o o o X X o o X b > m +.&.&.&.P 3 } :.,.,.y 9 T #.&.&.&.T x 9 7 X o o o o o o o ",
"o o o o o o X H Y S -   I &.&.&.T :       v E &.&.&.&.F   < A T r X o o o o o o ",
"o o o o o X K @.#.Y B B +.&.&.&.#.U B B B R #.&.&.&.&.T B V T #.@.t X o o o o X ",
"o o o o o X I &.&.&.Y S S S E &.&.&.&.&.&.&.&.&.&.E S S S T &.&.&.F X o o o X X ",
"o o o o X G @.&.#.&.#.#.Y S S S S S S S S S S S S S S T #.#.&.&.&.@.6 X o o o o ",
"o o o o X H &.&.Y +.&.&.&.&.T S S S S S S S S S S T &.&.&.&.T T &.&.r X o o X X ",
"o o o X L %.Y S +.$.&.&.&.&.$.#.#.#.#.#.#.#.#.#.#.$.&.&.&.&.$.E S T @.D X o o o ",
"o o o X I T > b @.&.&.&.&.&.&.&.&.&.&.&.&.&.&.&.&.&.&.&.&.&.&.E 9 9 +.F X o o o ",
"o o X H &.5 n A @.&.Y +.&.&.&.&.&.&.&.&.&.&.&.&.&.&.&.&.&.E E E A 9 F #.r X o o ",
"o o X * * x V S @.&.#.#.&.&.&.&.&.&.&.&.&.&.&.&.&.&.T S +.#.#.E S V 3 * @ X o o ",
"o X >.h X X m S S +.&.Y @.&.&.&.&.&.&.&.&.&.&.&.T T T S E &.T S S 9 X X ....X o ",
"o X 9.j X X O b S S S +.#.&.&.&.&.&.&.&.&.&.&.&.#.#.#.@.T S S S 7 X X X X.X.X o ",
"o X 9.4.1   C 2 m S S S S S S S S S S S S S S S S S S S S S S 9 e e   j 7.X.X o ",
"X X * O.<.=.:.[ ; @ n V V V V V V V V V V V V V V V V V V 9 @ 4 *.-.=.3. .$ X o ",
"X X X o.d         X X                                                 k k X o o ",
"X X X $ o X X X X o o X o X X X X X X X X o o o o o X o X X X X X X o o o o o o ",
"o X X X o o o o o o o o o o o o o o o o o o o o o o o o o o o o o o o o o o o o ",
"o X o o o o o o o o o o o o o o o o o o o o o o o o o o o o o o o o o o o o o o ",
"X X o o o o o o o o o o o o o o o o o o o o o o o o o o o o o o o o o o o o o o ",
"X X o o o o o o o o o o o o o o o o o o o o o o o o o o o o o o o o o o o o o o ",
"o o o o o o o o o o o o o o o o o o o o o o o o o o o o o o o o o o o o o o o o "
};
